<svg width="95" height="34" viewBox="0 0 95 34" fill="none" xmlns="http://www.w3.org/2000/svg">
<path d="M14.0775 16.72C15.3575 15.408 16.3815 14.096 17.1495 12.784C17.9495 11.472 18.3495 10.32 18.3495 9.328C18.3495 7.92 17.8215 6.832 16.7655 6.064C15.7415 5.264 14.3015 4.864 12.4455 4.864C10.9415 4.864 9.3415 5.232 7.6455 5.968C5.9815 6.704 4.4295 7.712 2.9895 8.992L0.6855 4.912C2.5735 3.44 4.5735 2.288 6.6855 1.456C8.8295 0.591998 11.0055 0.159998 13.2135 0.159998C15.4215 0.159998 17.3415 0.511998 18.9735 1.216C20.6375 1.888 21.9335 2.864 22.8615 4.144C23.7895 5.392 24.2535 6.864 24.2535 8.56C24.2535 10.224 23.6615 12 22.4775 13.888C21.2935 15.744 19.7735 17.632 17.9175 19.552L6.9735 30.928L6.2055 29.2H25.8855V34H1.2615V30.016L14.0775 16.72ZM31.9316 0.399998H38.5076L50.1236 23.2L61.6436 0.399998H68.2196V34H62.9876L62.9396 8.32L51.8996 30.496H48.2996L37.1636 8.32V34H31.9316V0.399998ZM74.3363 16.624H94.8803V20.272H74.3363V16.624ZM82.8323 8.176H86.4323V28.72H82.8323V8.176Z" fill="#9DFF3A"/>
</svg>
