<svg width="81" height="35" viewBox="0 0 81 35" fill="none" xmlns="http://www.w3.org/2000/svg">
<path d="M15.4861 14.56C18.6221 14.784 21.1501 15.68 23.0701 17.248C25.0221 18.816 25.9981 20.928 25.9981 23.584C25.9981 25.664 25.4541 27.52 24.3661 29.152C23.3101 30.752 21.7901 32 19.8061 32.896C17.8541 33.792 15.5181 34.24 12.7981 34.24C10.5581 34.24 8.35013 33.92 6.17413 33.28C3.99813 32.608 2.14213 31.728 0.606125 30.64L2.95813 26.32C4.27013 27.408 5.74213 28.256 7.37413 28.864C9.03813 29.44 10.7181 29.728 12.4141 29.728C14.1101 29.728 15.5501 29.488 16.7341 29.008C17.9501 28.496 18.8781 27.792 19.5181 26.896C20.1581 25.968 20.4781 24.912 20.4781 23.728C20.4781 21.84 19.7581 20.416 18.3181 19.456C16.8781 18.496 14.8781 18.016 12.3181 18.016H7.42213V14.656L18.9901 3.28L19.7581 5.2H2.28613L2.23813 0.399998H24.3181V3.76L11.7421 16.144L11.0221 14.224L15.4861 14.56ZM38.5198 15.28L37.2718 12.832C37.6558 12.8 38.2158 12.784 38.9518 12.784C39.7198 12.752 40.5198 12.736 41.3518 12.736C42.1838 12.736 42.8878 12.736 43.4638 12.736C46.0238 12.736 48.2318 13.184 50.0878 14.08C51.9758 14.976 53.4318 16.192 54.4558 17.728C55.4798 19.264 55.9918 21.008 55.9918 22.96C55.9918 25.232 55.4478 27.216 54.3598 28.912C53.3038 30.608 51.7998 31.92 49.8478 32.848C47.9278 33.776 45.6558 34.24 43.0318 34.24C40.9838 34.24 38.8238 33.888 36.5518 33.184C34.3118 32.48 32.3278 31.552 30.5998 30.4L32.9038 26.08C34.3118 27.168 35.8478 28.016 37.5118 28.624C39.1758 29.232 40.8398 29.536 42.5038 29.536C44.7758 29.536 46.5838 28.976 47.9278 27.856C49.2718 26.736 49.9438 25.232 49.9438 23.344C49.9438 21.552 49.2878 20.144 47.9758 19.12C46.6958 18.064 44.7278 17.536 42.0718 17.536C41.6878 17.536 41.1278 17.552 40.3918 17.584C39.6558 17.584 38.8398 17.616 37.9438 17.68C37.0798 17.712 36.2318 17.76 35.3997 17.824C34.5678 17.888 33.8478 17.952 33.2398 18.016V0.399998H54.5518V5.2H35.9758L38.5198 2.704V15.28ZM59.6956 16.624H80.2396V20.272H59.6956V16.624ZM68.1916 8.176H71.7916V28.72H68.1916V8.176Z" fill="#9DFF3A"/>
</svg>
