<svg width="147" height="37" viewBox="0 0 147 37" fill="none" xmlns="http://www.w3.org/2000/svg">
<path d="M8.176 17.28L6.928 14.832C7.312 14.8 7.872 14.784 8.608 14.784C9.376 14.752 10.176 14.736 11.008 14.736C11.84 14.736 12.544 14.736 13.12 14.736C15.68 14.736 17.888 15.184 19.744 16.08C21.632 16.976 23.088 18.192 24.112 19.728C25.136 21.264 25.648 23.008 25.648 24.96C25.648 27.232 25.104 29.216 24.016 30.912C22.96 32.608 21.456 33.92 19.504 34.848C17.584 35.776 15.312 36.24 12.688 36.24C10.64 36.24 8.48 35.888 6.208 35.184C3.968 34.48 1.984 33.552 0.256 32.4L2.56 28.08C3.968 29.168 5.504 30.016 7.168 30.624C8.832 31.232 10.496 31.536 12.16 31.536C14.432 31.536 16.24 30.976 17.584 29.856C18.928 28.736 19.6 27.232 19.6 25.344C19.6 23.552 18.944 22.144 17.632 21.12C16.352 20.064 14.384 19.536 11.728 19.536C11.344 19.536 10.784 19.552 10.048 19.584C9.312 19.584 8.496 19.616 7.6 19.68C6.736 19.712 5.888 19.76 5.056 19.824C4.224 19.888 3.504 19.952 2.896 20.016V2.4H24.208V7.2H5.632L8.176 4.704V17.28ZM44.7119 2.16C49.2879 2.16 52.8079 3.632 55.2719 6.576C57.7359 9.52 58.9679 13.728 58.9679 19.2C58.9679 24.672 57.7359 28.88 55.2719 31.824C52.8079 34.768 49.2879 36.24 44.7119 36.24C40.1039 36.24 36.5679 34.768 34.1039 31.824C31.6399 28.88 30.4079 24.672 30.4079 19.2C30.4079 13.728 31.6399 9.52 34.1039 6.576C36.5679 3.632 40.1039 2.16 44.7119 2.16ZM44.7119 6.384C41.8959 6.384 39.7679 7.44 38.3279 9.552C36.9199 11.632 36.2159 14.848 36.2159 19.2C36.2159 23.52 36.9199 26.736 38.3279 28.848C39.7679 30.96 41.8959 32.016 44.7119 32.016C47.5279 32.016 49.6399 30.96 51.0479 28.848C52.4559 26.736 53.1599 23.52 53.1599 19.2C53.1599 14.848 52.4559 11.632 51.0479 9.552C49.6399 7.44 47.5279 6.384 44.7119 6.384ZM78.6494 2.16C83.2254 2.16 86.7454 3.632 89.2094 6.576C91.6734 9.52 92.9054 13.728 92.9054 19.2C92.9054 24.672 91.6734 28.88 89.2094 31.824C86.7454 34.768 83.2254 36.24 78.6494 36.24C74.0414 36.24 70.5054 34.768 68.0414 31.824C65.5774 28.88 64.3454 24.672 64.3454 19.2C64.3454 13.728 65.5774 9.52 68.0414 6.576C70.5054 3.632 74.0414 2.16 78.6494 2.16ZM78.6494 6.384C75.8334 6.384 73.7054 7.44 72.2654 9.552C70.8574 11.632 70.1534 14.848 70.1534 19.2C70.1534 23.52 70.8574 26.736 72.2654 28.848C73.7054 30.96 75.8334 32.016 78.6494 32.016C81.4654 32.016 83.5774 30.96 84.9854 28.848C86.3934 26.736 87.0974 23.52 87.0974 19.2C87.0974 14.848 86.3934 11.632 84.9854 9.552C83.5774 7.44 81.4654 6.384 78.6494 6.384ZM99.8669 0.383998H105.387V36H99.8669V0.383998ZM116.667 10.512H123.003L104.955 29.232V22.656L116.667 10.512ZM113.019 19.584L123.723 36H117.195L108.939 22.896L113.019 19.584ZM125.774 18.624H146.318V22.272H125.774V18.624ZM134.27 10.176H137.87V30.72H134.27V10.176Z" fill="#9DFF3A"/>
</svg>
